<svg width="640" height="400" viewBox="0 0 640 400" fill="none" xmlns="http://www.w3.org/2000/svg">
<g clip-path="url(#clip0_2524_507)">
<path d="M327.127 55.7303L332.015 47.2434L332.448 47.4929L334.458 44.0019L336.469 47.4928L336.902 47.2433L341.79 55.7302L341.356 55.9797L346.244 64.4666L346.677 64.217L351.565 72.7039L351.132 72.9534L356.019 81.4402L356.452 81.1907L361.34 89.6776L360.907 89.9271L365.794 98.414L366.227 98.1644L371.115 106.651L370.682 106.901L375.569 115.388L376.003 115.138L380.89 123.625L380.457 123.875L385.344 132.361L385.778 132.112L390.665 140.599L390.232 140.848L395.119 149.335L395.553 149.086L400.44 157.572L400.007 157.822L404.895 166.309L405.328 166.059L410.215 174.546L409.782 174.796L414.67 183.282L415.103 183.033L419.99 191.52L419.557 191.769L424.445 200.256L424.878 200.007L429.765 208.493L429.332 208.743L434.22 217.23L434.653 216.98L439.541 225.467L439.107 225.717L443.995 234.203L444.428 233.954L449.316 242.441L448.882 242.69L453.77 251.177L454.203 250.928L459.091 259.414L458.657 259.664L463.545 268.151L463.978 267.901L468.866 276.388L468.432 276.638L473.32 285.125L473.753 284.875L478.641 293.362L478.208 293.611L483.095 302.098L483.528 301.849L488.416 310.336L487.983 310.585L492.87 319.072L493.303 318.822L498.191 327.309L497.758 327.559L502.645 336.046L503.079 335.796L507.966 344.283L507.533 344.532L512.42 353.019L512.854 352.77L517.741 361.257L517.308 361.506L519.32 365H515.298V365.5H505.522V365H495.747V365.5H485.972V365H476.197V365.5H466.422V365H456.647V365.5H446.872V365H437.097V365.5H427.322V365H417.547V365.5H407.772V365H397.997V365.5H388.221V365H378.446V365.5H368.671V365H358.896V365.5H349.121V365H339.346V365.5H329.571V365H319.796V365.5H310.021V365H300.246V365.5H290.471V365H280.696V365.5H270.92V365H261.145V365.5H251.37V365H241.595V365.5H231.82V365H222.045V365.5H212.27V365H202.495V365.5H192.72V365H182.945V365.5H173.17V365H163.395V365.5H153.62V365H149.597L151.609 361.506L151.176 361.257L156.063 352.77L156.497 353.019L161.384 344.533L160.951 344.283L165.838 335.796L166.272 336.046L171.159 327.559L170.726 327.309L175.613 318.822L176.047 319.072L180.934 310.585L180.501 310.336L185.389 301.849L185.822 302.098L190.709 293.611L190.276 293.362L195.164 284.875L195.597 285.125L200.484 276.638L200.051 276.388L204.939 267.901L205.372 268.151L210.26 259.664L209.826 259.414L214.714 250.928L215.147 251.177L220.035 242.69L219.601 242.441L224.489 233.954L224.922 234.203L229.81 225.717L229.376 225.467L234.264 216.98L234.697 217.23L239.585 208.743L239.151 208.493L244.039 200.007L244.472 200.256L249.36 191.769L248.927 191.52L253.814 183.033L254.247 183.282L259.135 174.796L258.702 174.546L263.589 166.059L264.022 166.309L268.91 157.822L268.477 157.572L273.364 149.086L273.798 149.335L278.685 140.848L278.252 140.599L283.139 132.112L283.573 132.361L288.46 123.875L288.027 123.625L292.914 115.138L293.348 115.388L298.235 106.901L297.802 106.651L302.689 98.1645L303.123 98.414L308.01 89.9272L307.577 89.6776L312.465 81.1908L312.898 81.4403L317.785 72.9535L317.352 72.7039L322.24 64.2171L322.673 64.4666L327.56 55.9798L327.127 55.7303Z" stroke="black" stroke-dasharray="10 10"/>
</g>
<defs>
<clipPath id="clip0_2524_507">
<rect width="640" height="400" fill="white"/>
</clipPath>
</defs>
</svg>
