<svg width="170" height="170" viewBox="0 0 170 170" fill="none" xmlns="http://www.w3.org/2000/svg">
<g clip-path="url(#clip0_917_1538)">
<mask id="mask0_917_1538" style="mask-type:alpha" maskUnits="userSpaceOnUse" x="4" y="4" width="162" height="162">
<circle cx="84.9998" cy="85" r="80.325" fill="#D9D9D9"/>
</mask>
<g mask="url(#mask0_917_1538)">
<path d="M170 0H0V170H170V0Z" fill="#BFBFBF"/>
<path d="M85.0231 120.046C74.5302 120.046 64.0338 120.05 53.5409 120.046C46.5925 120.043 41.5008 114.965 41.5008 108.053C41.5008 94.6311 41.5511 81.2091 41.4792 67.7872C41.4432 60.9826 47.2726 55.729 53.2854 55.9917C56.1749 56.1176 59.0716 55.9701 61.9647 56.0349C62.9831 56.0565 63.4868 55.6894 63.7927 54.7539C64.2461 53.3613 64.865 52.0263 65.2968 50.6301C66.4915 46.7583 70.6476 44.1854 74.3072 44.2646C81.6262 44.4193 88.9489 44.3078 96.2716 44.3114C100.241 44.3114 103.562 46.6467 104.929 50.3674C105.505 51.9363 106.131 53.4908 106.682 55.0705C106.93 55.783 107.351 56.0277 108.082 56.0241C111.219 55.9989 114.357 56.0025 117.495 56.0205C123.616 56.0529 128.754 61.1878 128.761 67.323C128.779 81.094 128.779 94.865 128.761 108.636C128.754 114.843 123.576 120.028 117.344 120.043C106.57 120.072 95.7966 120.05 85.0267 120.054L85.0231 120.046ZM64.9262 88.0208C64.6023 98.7008 73.6415 108.28 85.0303 108.312C96.2896 108.344 105.541 99.2262 105.501 88.0748C105.462 76.0311 95.5448 67.7188 85.1922 67.6684C74.12 67.6145 64.5232 77.1789 64.9226 88.0208H64.9262Z" fill="white"/>
<path d="M98.2185 87.9632C98.384 94.9081 92.8461 101.155 85.1132 101.133C77.3155 101.112 71.9791 94.6598 72.0331 87.9704C72.0871 80.7521 77.9488 74.8291 85.1528 74.8543C92.659 74.8795 98.4776 81.1479 98.2185 87.9632Z" fill="white"/>
</g>
</g>
<defs>
<clipPath id="clip0_917_1538">
<rect width="170" height="170" fill="white"/>
</clipPath>
</defs>
</svg>
