<svg width="99" height="99" viewBox="0 0 99 99" fill="none" xmlns="http://www.w3.org/2000/svg">
<circle cx="49" cy="49" r="49" fill="white"/>
<path d="M49.1667 0C39.4424 0 29.9366 2.88358 21.8512 8.28608C13.7657 13.6886 7.46392 21.3674 3.74261 30.3514C0.0213032 39.3354 -0.952361 49.2212 0.944746 58.7586C2.84185 68.296 7.52452 77.0567 14.4006 83.9327C21.2767 90.8088 30.0373 95.4915 39.5747 97.3886C49.1121 99.2857 58.9979 98.3121 67.982 94.5907C76.966 90.8694 84.6448 84.5676 90.0473 76.4822C95.4498 68.3968 98.3334 58.8909 98.3334 49.1667C98.3334 42.71 97.0616 36.3166 94.5908 30.3514C92.1199 24.3862 88.4983 18.9661 83.9328 14.4006C79.3672 9.83504 73.9471 6.21345 67.982 3.74259C62.0168 1.27173 55.6233 0 49.1667 0ZM70.3083 37.4158L47.8392 66.9158C47.3812 67.5108 46.7929 67.993 46.1197 68.3254C45.4464 68.6578 44.7059 68.8315 43.955 68.8333C43.2082 68.8374 42.4703 68.6712 41.7973 68.3475C41.1243 68.0238 40.5339 67.551 40.0709 66.965L28.0742 51.6742C27.6771 51.1641 27.3844 50.5808 27.2127 49.9576C27.0411 49.3344 26.9938 48.6835 27.0737 48.042C27.1536 47.4006 27.3591 46.7811 27.6784 46.219C27.9977 45.657 28.4245 45.1633 28.9346 44.7662C29.9647 43.9643 31.2713 43.6044 32.5668 43.7658C33.2082 43.8457 33.8277 44.0511 34.3897 44.3704C34.9518 44.6897 35.4454 45.1166 35.8425 45.6267L43.8567 55.8533L62.4417 31.27C62.8355 30.7535 63.3273 30.3196 63.8888 29.9931C64.4504 29.6666 65.0707 29.4539 65.7145 29.3671C66.3582 29.2804 67.0127 29.3213 67.6407 29.4875C68.2686 29.6537 68.8577 29.942 69.3742 30.3358C69.8907 30.7297 70.3246 31.2214 70.6511 31.783C70.9776 32.3445 71.1903 32.9649 71.277 33.6086C71.3638 34.2524 71.3229 34.9069 71.1567 35.5348C70.9905 36.1627 70.7022 36.7518 70.3083 37.2683V37.4158Z" fill="#46E54B"/>
</svg>
