<svg width="99" height="99" viewBox="0 0 99 99" fill="none" xmlns="http://www.w3.org/2000/svg">
<path d="M49.1667 0C39.4424 0 29.9366 2.88358 21.8512 8.28608C13.7657 13.6886 7.46392 21.3674 3.74261 30.3514C0.0213032 39.3354 -0.952361 49.2212 0.944746 58.7586C2.84185 68.296 7.52452 77.0567 14.4006 83.9327C21.2767 90.8088 30.0373 95.4915 39.5747 97.3886C49.1121 99.2857 58.9979 98.3121 67.982 94.5907C76.966 90.8694 84.6448 84.5676 90.0473 76.4822C95.4498 68.3968 98.3334 58.8909 98.3334 49.1667C98.3334 42.71 97.0616 36.3166 94.5908 30.3514C92.1199 24.3862 88.4983 18.9661 83.9328 14.4006C79.3672 9.83504 73.9471 6.21345 67.982 3.74259C62.0168 1.27173 55.6233 0 49.1667 0Z" fill="#E55046"/>
<path d="M28.9467 69.0533C30.2507 70.3572 32.3647 70.3572 33.6686 69.0533L49.5 53.2219L65.3313 69.0533C66.6353 70.3572 68.7493 70.3572 70.0533 69.0533C71.3572 67.7493 71.3572 65.6353 70.0533 64.3313L54.2219 48.5L70.0533 32.6686C71.3572 31.3647 71.3572 29.2507 70.0533 27.9467C68.7493 26.6428 66.6353 26.6428 65.3313 27.9467L49.5 43.7781L33.6686 27.9467C32.3647 26.6428 30.2507 26.6428 28.9467 27.9467C27.6428 29.2507 27.6428 31.3647 28.9467 32.6686L44.7781 48.5L28.9467 64.3313C27.6428 65.6353 27.6428 67.7493 28.9467 69.0533Z" fill="white" stroke="white" stroke-width="2"/>
</svg>
