<svg width="23" height="23" viewBox="0 0 23 23" fill="none" xmlns="http://www.w3.org/2000/svg">
<path d="M4.79167 18.2084H6.13333L14.399 9.94279L13.0573 8.60112L4.79167 16.8667V18.2084ZM18.4958 8.55321L14.4229 4.52821L15.7646 3.18654C16.1319 2.81918 16.5833 2.6355 17.1187 2.6355C17.6541 2.6355 18.1052 2.81918 18.4719 3.18654L19.8135 4.52821C20.1809 4.89557 20.3726 5.33896 20.3885 5.85837C20.4045 6.37779 20.2288 6.82086 19.8615 7.18758L18.4958 8.55321ZM17.1063 9.96675L6.94792 20.1251H2.875V16.0522L13.0333 5.89383L17.1063 9.96675ZM13.7281 9.27196L13.0573 8.60112L14.399 9.94279L13.7281 9.27196Z" fill="#252525"/>
</svg>
