<svg width="230" height="63" viewBox="0 0 230 63" fill="none" xmlns="http://www.w3.org/2000/svg">
<path d="M77.4 32.9C77.4 29.3 78.9 26.3 81.8 23.8C84.7 21.3 88.5 20.1 93.1 20.1V24.3C90.4 24.3 88 24.9 86.1 26C84.2 27.1 82.9 28.7 82.3 30.6H93.1L92.4 34.5H82C82.3 36 83.1 37.3 84.3 38.3C85.5 39.3 87.1 39.8 89.1 39.8C90.7 39.8 92 39.6 93.1 39.3V43C91.9 43.6 90.5 44 88.7 44C85.2 44 82.4 42.9 80.4 40.8C78.4 38.7 77.4 36 77.4 32.9Z" fill="#252525"/>
<path d="M100.8 18.7V14.5H119.7L119.3 18.7V38.9H123.4L121 49.2H116.4L117.8 43H99.8V49.2H95.2V38.9H98.1L106.7 18.7H100.8ZM111.4 18.7L102.5 38.9H114.6V18.7H111.4Z" fill="#252525"/>
<path d="M126.8 43V21H131.3V29.7H140.7V21L145.2 20.3V43H140.7V33.6H131.3V43H126.8Z" fill="#252525"/>
<path d="M152.1 43V24.9H148.9V21.4L152.1 21L156.6 20.2V43H152.1ZM152.3 17.9L152.9 11.8L157.7 12.4L156.7 17.3L152.3 17.9Z" fill="#252525"/>
<path d="M162.4 43V21H175.9L180.4 20.3V43H175.9V24.9H167V43C166.9 43 162.4 43 162.4 43Z" fill="#252525"/>
<path d="M186.2 49.4V20.8H187.3L189.2 21.8C190.9 20.7 192.7 20.2 194.7 20.2C197.8 20.2 200.3 21.1 202.2 23.1C204.1 25 205 27.6 205 30.9C205 34.6 203.6 37.7 200.9 40.2C198.2 42.7 194.7 44 190.6 44V49.5L186.2 49.4ZM194.5 24.2C193.2 24.2 192 24.6 190.7 25.5V39.7C193.8 39.7 196.2 38.8 198 37.2C199.8 35.5 200.7 33.4 200.7 30.8C200.7 28.7 200.1 27.1 198.9 25.9C197.7 24.8 196.2 24.2 194.5 24.2Z" fill="#252525"/>
<path d="M208.2 32.8C208.2 29.2 209.2 26.1 211.2 23.7C213.2 21.3 215.9 20.1 219.3 20.1C222.6 20.1 225.2 21.2 227.1 23.4C229 25.6 229.9 28.2 229.9 31.2C229.9 34.8 228.9 37.9 226.9 40.3C224.9 42.7 222.2 43.9 218.8 43.9C215.5 43.9 212.9 42.8 211 40.6C209.1 38.5 208.2 35.8 208.2 32.8ZM225.4 31.6C225.4 29.6 224.9 27.8 223.8 26.4C222.7 25 221.2 24.3 219.3 24.3C217.1 24.3 215.5 25 214.4 26.5C213.3 28 212.8 29.9 212.8 32.5C212.8 34.5 213.3 36.3 214.4 37.7C215.5 39.1 217 39.8 218.9 39.8C221.1 39.8 222.7 39.1 223.8 37.6C224.8 36.2 225.4 34.2 225.4 31.6Z" fill="#252525"/>
<path d="M12.3 62.8H9C4.1 62.8 0 58.8 0 53.8V50.5C0 49.4 0.9 48.5 2 48.5C3.1 48.5 4 49.4 4 50.5V53.8C4 56.6 6.2 58.8 9 58.8H12.2C13.3 58.8 14.2 59.7 14.2 60.8C14.2 61.9 13.4 62.8 12.3 62.8Z" fill="#252525"/>
<path d="M53.8 62.8H50.5C49.4 62.8 48.5 61.9 48.5 60.8C48.5 59.7 49.4 58.8 50.5 58.8H53.8C56.6 58.8 58.8 56.6 58.8 53.8V50.5C58.8 49.4 59.7 48.5 60.8 48.5C61.9 48.5 62.8 49.4 62.8 50.5V53.8C62.8 58.7 58.8 62.8 53.8 62.8Z" fill="#252525"/>
<path d="M60.8 15.2C59.7 15.2 58.8 14.3 58.8 13.2V9C58.8 6.2 56.6 4 53.8 4H49.7C48.6 4 47.7 3.1 47.7 2C47.7 0.9 48.6 0 49.7 0H53.8C58.8 0 62.8 4 62.8 9V13.2C62.8 14.3 61.9 15.2 60.8 15.2Z" fill="#252525"/>
<path d="M2.1 14.3C0.999998 14.3 0.0999985 13.4 0.0999985 12.3V9C0.0999985 4.1 4.1 0 9.1 0H12.5C13.6 0 14.5 0.9 14.5 2C14.5 3.1 13.6 4 12.5 4H9.1C6.3 4 4.1 6.2 4.1 9V12.3C4.1 13.4 3.2 14.3 2.1 14.3Z" fill="#252525"/>
<path d="M47.8 35.6L19.9 9.9C19.6 9.6 19.2 9.6 18.8 9.7C18.4 9.9 18.2 10.2 18.2 10.6V48.5C18.2 48.9 18.4 49.3 18.8 49.4C19.2 49.6 19.6 49.5 19.9 49.2L27.4 42L32.1 52.6C32.2 52.9 32.5 53.1 32.8 53.2C32.9 53.2 32.9 53.2 33 53.2C33.3 53.2 33.5 53.1 33.7 52.9C35.5 51 36.7 50.9 38.1 50.7C39 50.6 39.9 50.5 40.9 49.9C41.4 49.7 41.5 49.1 41.3 48.6L36.6 37.9L47 37.2C47.4 37.2 47.8 36.9 47.9 36.5C48 36.1 48.1 35.9 47.8 35.6ZM31.7 34.8C31.5 35.1 31.5 35.4 31.6 35.7L36.6 47.2C36.5 47.2 36.4 47.2 36.3 47.3C35.7 47.4 35.1 47.5 34.3 48.1L29.3 36.8C29.2 36.5 28.9 36.3 28.6 36.2C28.5 36.2 28.5 36.2 28.4 36.2C28.1 36.2 27.9 36.3 27.7 36.5L22 41.9V16.9L40.4 33.8L32.5 34.3C32.2 34.3 31.9 34.5 31.7 34.8Z" fill="#252525"/>
</svg>
