<svg width="66" height="55" viewBox="0 0 66 55" fill="none" xmlns="http://www.w3.org/2000/svg">
<path d="M21.4192 55C20.0449 55 18.8423 54.4844 17.8115 53.4531C16.7808 52.4219 16.2654 51.2188 16.2654 49.8438V45.25C16.2654 43.0409 18.0562 41.25 20.2654 41.25H26.9167V30.3359C24.7406 30.5078 22.5645 30.207 20.3885 29.4336C18.7339 28.8455 17.2118 28.0008 15.8221 26.8993C14.9725 26.226 14.5474 25.1691 14.5474 24.0851V20.7969H11.91C10.8488 20.7969 9.83108 20.3752 9.08088 19.6246L1.90836 12.4488C0.315506 10.8552 0.342883 8.2319 2.22589 6.99456C3.50347 6.15505 4.89056 5.41338 6.38718 4.76953C9.25043 3.53776 12.1709 2.92188 15.1487 2.92188C16.8667 2.92188 18.828 3.19401 21.0327 3.73828C23.2374 4.28255 25.1987 5.15625 26.9167 6.35938V4C26.9167 1.79086 28.7075 0 30.9167 0H62C64.2091 0 66 1.79086 66 4V45.9766C66 48.4974 65.1267 50.6315 63.3801 52.3789C61.6335 54.1263 59.5004 55 56.9808 55H21.4192ZM32.0705 41.25H49.1154C51.3245 41.25 53.1154 43.0409 53.1154 45.25V45.9766C53.1154 47.1224 53.4733 48.0534 54.1891 48.7695C54.9049 49.4857 55.8355 49.8438 56.9808 49.8438C58.1261 49.8438 59.0566 49.4857 59.7724 48.7695C60.4882 48.0534 60.8461 47.1224 60.8461 45.9766V5.15625H32.0705V8.39838C32.0705 9.45892 32.4917 10.4761 33.2414 11.2261L52.0068 30.0003C52.4966 30.4903 52.7718 31.1553 52.7718 31.8482C52.7718 33.2905 51.6026 34.4609 50.1603 34.4609C49.4675 34.4609 48.803 34.1856 48.3132 33.6956L38.2551 23.6328L36.7949 25.3516C36.0504 26.2109 35.306 26.8698 34.5615 27.3281C33.8171 27.7865 32.9868 28.2161 32.0705 28.6172V41.25ZM11.4001 14.4684C12.1503 15.2189 13.168 15.6406 14.2292 15.6406H15.7013C17.9104 15.6406 19.7013 17.4315 19.7013 19.6406V21.1135C19.7013 22.47 20.3683 23.7816 21.6089 24.3304C21.9339 24.4742 22.2572 24.5998 22.5788 24.707C23.5237 25.0221 24.4829 25.1797 25.4564 25.1797C26.888 25.1797 28.3483 24.793 29.8372 24.0195C31.3261 23.2461 32.4141 22.4583 33.1013 21.6563L34.5615 19.9375L28.6346 14.0078C26.8021 12.1745 24.7406 10.7279 22.45 9.66797C20.1594 8.60807 17.7256 8.07812 15.1487 8.07812C13.6026 8.07812 12.1996 8.26432 10.9397 8.63672C9.67991 9.00911 8.39145 9.51042 7.07436 10.1406L11.4001 14.4684ZM21.4192 49.8438H49.1641C48.8205 49.5 48.5342 49.0273 48.3051 48.4258C48.0761 47.8242 47.9615 47.151 47.9615 46.4063H21.4192V49.8438ZM21.4192 49.8438V46.4063C21.4192 47.151 21.4192 47.8242 21.4192 48.4258C21.4192 49.0273 21.4192 49.5 21.4192 49.8438Z" fill="#FA855F"/>
</svg>
