<svg width="32" height="35" viewBox="0 0 32 35" fill="none" xmlns="http://www.w3.org/2000/svg">
<path d="M28.4444 14H30.2222C30.6937 14 31.1459 14.1844 31.4793 14.5126C31.8127 14.8408 32 15.2859 32 15.75V33.25C32 33.7141 31.8127 34.1592 31.4793 34.4874C31.1459 34.8156 30.6937 35 30.2222 35H1.77778C1.30628 35 0.854097 34.8156 0.520699 34.4874C0.187301 34.1592 0 33.7141 0 33.25V15.75C0 15.2859 0.187301 14.8408 0.520699 14.5126C0.854097 14.1844 1.30628 14 1.77778 14H3.55556V12.25C3.55556 9.0011 4.86666 5.88526 7.20045 3.58794C9.53423 1.29062 12.6995 0 16 0C19.3005 0 22.4658 1.29062 24.7996 3.58794C27.1333 5.88526 28.4444 9.0011 28.4444 12.25V14ZM3.55556 17.5V31.5H28.4444V17.5H3.55556ZM14.2222 21H17.7778V28H14.2222V21ZM24.8889 14V12.25C24.8889 9.92936 23.9524 7.70376 22.2854 6.06282C20.6184 4.42187 18.3575 3.5 16 3.5C13.6425 3.5 11.3816 4.42187 9.71461 6.06282C8.04762 7.70376 7.11111 9.92936 7.11111 12.25V14H24.8889Z" fill="#252525" fill-opacity="0.7"/>
</svg>
