<svg width="44" height="44" viewBox="0 0 44 44" fill="none" xmlns="http://www.w3.org/2000/svg">
<path d="M3.66667 44C2.68889 44 1.83333 43.6333 1.1 42.9C0.366667 42.1667 0 41.3111 0 40.3333V3.66667C0 2.68889 0.366667 1.83333 1.1 1.1C1.83333 0.366667 2.68889 0 3.66667 0H19.6167C20.6292 0 21.45 0.820812 21.45 1.83333C21.45 2.84585 20.6292 3.66667 19.6167 3.66667H5.66667C4.5621 3.66667 3.66667 4.5621 3.66667 5.66667V38.3333C3.66667 39.4379 4.5621 40.3333 5.66667 40.3333H19.6167C20.6292 40.3333 21.45 41.1541 21.45 42.1667C21.45 43.1792 20.6292 44 19.6167 44H3.66667ZM34.6806 31.3806C33.9549 32.1062 32.7784 32.1062 32.0528 31.3806C31.3271 30.6549 31.3271 29.4784 32.0528 28.7528L36.9722 23.8333H17.4167C16.4041 23.8333 15.5833 23.0125 15.5833 22C15.5833 20.9875 16.4041 20.1667 17.4167 20.1667H36.85L31.9306 15.2472C31.2049 14.5216 31.2049 13.3451 31.9306 12.6194C32.6562 11.8938 33.8327 11.8938 34.5583 12.6194L42.5858 20.6469C43.3668 21.4279 43.3668 22.6943 42.5858 23.4753L34.6806 31.3806Z" fill="#252525"/>
</svg>
