<svg id="Objects" xmlns="http://www.w3.org/2000/svg" viewBox="0 0 719.31 162.46"><defs><style>.cls-1{fill:#ffd880;}.cls-2{fill:#232323;}</style></defs><circle class="cls-1" cx="101.26" cy="85.32" r="12.85"/><path class="cls-2" d="M180.7,65.59h24.4a.67.67,0,0,1,.66.75L205.13,71V99a.67.67,0,0,0,.66.67h4.1a.66.66,0,0,1,.65.81l-3,12.62a.65.65,0,0,1-.64.51h-4.49a.66.66,0,0,1-.65-.81l1.58-6.9a.66.66,0,0,0-.65-.81h-24a.66.66,0,0,0-.67.66v7.2a.65.65,0,0,1-.66.66h-4.52a.65.65,0,0,1-.66-.66V100.3a.65.65,0,0,1,.66-.66h2.61a.65.65,0,0,0,.61-.41l11.68-27.3a.66.66,0,0,0-.61-.92H180.7a.67.67,0,0,1-.67-.67V66.25A.66.66,0,0,1,180.7,65.59Zm2,34.05h15.86a.67.67,0,0,0,.66-.67V71.67a.67.67,0,0,0-.66-.66h-3.84a.67.67,0,0,0-.61.39l-12,27.3A.67.67,0,0,0,182.7,99.64Z"/><path class="cls-2" d="M236.2,64.55c12.3,0,18.7,9.38,18.7,19.37,0,12.06-7.37,22.17-19.49,22.17-12.31,0-18.7-9.38-18.7-19.37C216.71,75,224,64.55,236.2,64.55ZM222.68,86.24c0,7.3,4.44,14.43,12.73,14.43,8.65,0,13.52-7.61,13.52-16.26,0-7.49-4.45-14.44-12.73-14.44C227.49,70,222.68,77.59,222.68,86.24Z"/><path class="cls-2" d="M265,99.59V66.27a.67.67,0,0,1,.68-.68h4.54a.68.68,0,0,1,.69.68V99a.68.68,0,0,0,.68.69h11.3a.69.69,0,0,0,.69-.69V66.27a.67.67,0,0,1,.68-.68h4.54a.67.67,0,0,1,.68.68V99a.69.69,0,0,0,.69.69h11.3a.68.68,0,0,0,.68-.69V66.2a.68.68,0,0,1,.61-.68l4.54-.52a.69.69,0,0,1,.76.68v38.69a.69.69,0,0,1-.68.69H265.07a.69.69,0,0,1-.68-.78l.62-4.6A.28.28,0,0,0,265,99.59Z"/><path class="cls-2" d="M321.18,65.59h4.45a.72.72,0,0,1,.73.73v38a.73.73,0,0,1-.73.73h-4.45a.73.73,0,0,1-.73-.73v-38A.73.73,0,0,1,321.18,65.59Zm6.28,19.25,17-19.59a.73.73,0,0,1,1-.11l3.34,2.53a.72.72,0,0,1,.1,1.06l-13.84,15.5a.73.73,0,0,0,0,1l16.36,18.65a.73.73,0,0,1-.55,1.21H345a.72.72,0,0,1-.54-.25l-17-19A.72.72,0,0,1,327.46,84.84Z"/><path class="cls-2" d="M361.06,65.59h4.5a.7.7,0,0,1,.71.7v38.06a.71.71,0,0,1-.71.71h-4.5a.7.7,0,0,1-.7-.71V66.29A.7.7,0,0,1,361.06,65.59Z"/><path class="cls-2" d="M382.31,65.59H407a.74.74,0,0,1,.74.85l-.6,4.52a.31.31,0,0,0,0,.1v33.25a.76.76,0,0,1-.75.75h-4.41a.75.75,0,0,1-.75-.75V71.76a.75.75,0,0,0-.75-.75h-5.15a.74.74,0,0,0-.71.54l-5.21,17.67c-1.37,4.4-3.2,8.81-10.72,16.28a.77.77,0,0,1-1.07,0l-3.23-3.27a.76.76,0,0,1,0-1c6.82-7.13,8.47-10.38,9.36-13.18l4.88-16a.75.75,0,0,0-.72-1h-5.54a.75.75,0,0,1-.75-.75V66.34A.74.74,0,0,1,382.31,65.59Z"/><path class="cls-2" d="M418.82,103.86l.56-4.15a.76.76,0,0,0,0-.15V66.64a1,1,0,0,1,1.05-1h3.81a1,1,0,0,1,1.05,1V77.45a1,1,0,0,0,1.05,1h5.47c10.59,0,15.65,4.69,15.65,11.76,0,8.64-6.21,14.8-18.27,14.8h-9.34A1,1,0,0,1,418.82,103.86ZM425.3,85V98.58a1.06,1.06,0,0,0,1.05,1.06h2.85c8.52,0,12.3-3.54,12.3-8.9,0-4.38-3.05-6.82-9.68-6.82h-5.47A1,1,0,0,0,425.3,85Z"/><path class="cls-2" d="M457.72,65.59h4.54a.67.67,0,0,1,.68.68V81a.69.69,0,0,0,.69.69h18.06a.69.69,0,0,0,.69-.69V66.2a.68.68,0,0,1,.61-.68l4.53-.52a.69.69,0,0,1,.76.69v38.68a.69.69,0,0,1-.69.69h-4.53a.68.68,0,0,1-.68-.69V87.84a.69.69,0,0,0-.69-.69H463.63a.69.69,0,0,0-.69.69v16.53a.68.68,0,0,1-.68.69h-4.54a.68.68,0,0,1-.68-.69V66.27A.67.67,0,0,1,457.72,65.59Z"/><path class="cls-2" d="M516.61,65.59H527a.21.21,0,0,1,.21.24l-.7,5.16v33.85a.21.21,0,0,1-.21.22h-5.48a.22.22,0,0,1-.22-.22V89.74a.21.21,0,0,0-.21-.22h-7a.22.22,0,0,0-.18.1l-11.45,16.25a.22.22,0,0,1-.29.06l-4.74-2.82a.22.22,0,0,1-.06-.32l10.39-14a.21.21,0,0,0-.11-.33c-5.12-1.57-8-5.24-8-9.9C499,71.37,504.55,65.59,516.61,65.59ZM505,78.07c0,3.72,2.38,6,9,6h6.42a.21.21,0,0,0,.21-.21V71.22a.21.21,0,0,0-.21-.21h-3.81C508.09,71,505,74.11,505,78.07Z"/><path class="cls-2" d="M534.54,65.59h29.58a.25.25,0,0,1,.26.3l-.88,4.91a.27.27,0,0,1-.26.21H552.57a.26.26,0,0,0-.26.26V104.8a.26.26,0,0,1-.25.26H546.6a.26.26,0,0,1-.26-.26V71.27a.25.25,0,0,0-.25-.26H534.54a.26.26,0,0,1-.26-.26V65.84A.26.26,0,0,1,534.54,65.59Z"/><path class="cls-2" d="M572.59,65.59h5.08a.41.41,0,0,1,.41.41v38.65a.41.41,0,0,1-.41.41h-5.08a.42.42,0,0,1-.42-.41V66A.41.41,0,0,1,572.59,65.59ZM579,85.05l17.42-20a.42.42,0,0,1,.56,0l3.84,2.91a.41.41,0,0,1,.06.6l-14.26,16a.41.41,0,0,0,0,.55l17,19.38a.41.41,0,0,1-.3.69H596.6a.41.41,0,0,1-.31-.14L579,85.59A.41.41,0,0,1,579,85.05Z"/><path class="cls-2" d="M629.37,64.55c12.31,0,18.7,9.38,18.7,19.37,0,12.06-7.37,22.17-19.49,22.17-12.3,0-18.7-9.38-18.7-19.37C609.88,75,617.19,64.55,629.37,64.55ZM615.85,86.24c0,7.3,4.45,14.43,12.73,14.43,8.65,0,13.52-7.61,13.52-16.26,0-7.49-4.44-14.44-12.73-14.44C620.67,70,615.85,77.59,615.85,86.24Z"/><path class="cls-2" d="M130.82,53.12h.88a2.5,2.5,0,0,1,1.76,1.76V85.82a13.28,13.28,0,0,1-1.2,1.57q-6.19,6.24-12.43,12.44a6,6,0,0,1-.71.5,8,8,0,0,1,.72.53Q126,107,132.05,113.08a19.29,19.29,0,0,1,1.41,1.8v.88a2.34,2.34,0,0,1-2.68,1.76q-14.55,0-29.11,0a3,3,0,0,1-2.23-.93q-6.34-6.39-12.71-12.73a4.24,4.24,0,0,1-.41-.72c-.33.41-.46.6-.62.77L73.11,116.5a5.86,5.86,0,0,1-.7.62,2,2,0,0,1-1.67.32A2.2,2.2,0,0,1,69.06,115q0-14.58,0-29.17a3.1,3.1,0,0,1,1-2.35C74.26,79.24,78.47,75,82.7,70.79a4.91,4.91,0,0,1,.68-.42c-.36-.31-.55-.45-.71-.61L70.09,57.18a5.89,5.89,0,0,1-.66-.76,2,2,0,0,1,.32-2.68,6,6,0,0,1,1.07-.62h31a15.16,15.16,0,0,1,1.57,1.2q6.24,6.2,12.44,12.43a5.07,5.07,0,0,1,.47.68c.27-.34.4-.53.56-.69q6.1-6.12,12.22-12.21A17.62,17.62,0,0,1,130.82,53.12ZM106.9,94.19a10.68,10.68,0,0,1-7.52,1.49c-.12,1-.28,1.86-.35,2.76a24.64,24.64,0,0,0,3.16,14.25.92.92,0,0,0,.92.55h22.83Zm-16-10.72c-.2,0-.36-.08-.52-.1-.71-.1-1.41-.23-2.12-.28a25,25,0,0,0-14.38,3.16.91.91,0,0,0-.54.92q0,11.16,0,22.32V110L92.41,91A10.54,10.54,0,0,1,90.9,83.47ZM76.59,57.4l18.9,18.91A30.23,30.23,0,0,1,99.21,75a28.3,28.3,0,0,1,4-.25c.11-.77.26-1.61.33-2.47a25,25,0,0,0-3.16-14.38.91.91,0,0,0-.92-.55c-7.43,0-14.87,0-22.31,0Zm35,29.76.32.07a24.85,24.85,0,0,0,16.85-2.93.74.74,0,0,0,.39-.76V61a3.62,3.62,0,0,0-.05-.4l-19,19A10.65,10.65,0,0,1,111.62,87.16Zm-4.15-1.85a6.21,6.21,0,1,0-6.24,6.22A6.17,6.17,0,0,0,107.47,85.31Zm5.61-15L107.3,64.5a30,30,0,0,1,0,11.61ZM86.29,73.55l-5.77,5.71a29.81,29.81,0,0,1,11.49,0Zm29.94,23.53L122,91.37a29.57,29.57,0,0,1-11.48,0Zm-21,9a30.48,30.48,0,0,1,0-11.58l-5.8,5.79Z"/></svg>