<svg width="36" height="36" viewBox="0 0 36 36" fill="none" xmlns="http://www.w3.org/2000/svg">
<path d="M36 18C36 27.9411 27.9411 36 18 36C8.05887 36 0 27.9411 0 18C0 8.05887 8.05887 0 18 0C27.9411 0 36 8.05887 36 18Z" fill="#FFFCF5"/>
<path d="M10.7917 25.2083H12.1333L20.399 16.9427L19.0573 15.601L10.7917 23.8667V25.2083ZM24.4958 15.5531L20.4229 11.5281L21.7646 10.1865C22.1319 9.8191 22.5833 9.63542 23.1187 9.63542C23.6541 9.63542 24.1052 9.8191 24.4719 10.1865L25.8135 11.5281C26.1809 11.8955 26.3726 12.3389 26.3885 12.8583C26.4045 13.3777 26.2288 13.8208 25.8615 14.1875L24.4958 15.5531ZM23.1063 16.9667L12.9479 27.125H8.875V23.0521L19.0333 12.8938L23.1063 16.9667ZM19.7281 16.2719L19.0573 15.601L20.399 16.9427L19.7281 16.2719Z" fill="#252525"/>
</svg>
