<svg width="142" height="102" viewBox="0 0 142 102" fill="none" xmlns="http://www.w3.org/2000/svg">
<path d="M83.9091 31.1351C83.9091 30.4865 84.1242 29.8649 84.5545 29.2703C84.9848 28.6757 85.4689 28.2703 86.0068 28.0541C89.2341 26.8649 92.542 25.9459 95.9307 25.2973C99.3193 24.6486 102.842 24.3243 106.5 24.3243C108.867 24.3243 111.18 24.4595 113.439 24.7297C115.698 25 117.903 25.4054 120.055 25.9459C120.7 26.1622 121.292 26.5676 121.83 27.1622C122.367 27.7568 122.636 28.4324 122.636 29.1892C122.636 30.3784 122.233 31.2973 121.426 31.9459C120.619 32.5946 119.624 32.7568 118.441 32.4324C116.612 31.8919 114.703 31.4865 112.712 31.2162C110.722 30.9459 108.652 30.8108 106.5 30.8108C103.38 30.8108 100.368 31.1081 97.4636 31.7027C94.5591 32.2973 91.7083 33.1892 88.9114 34.3784C87.4053 34.9189 86.1951 34.8919 85.2807 34.2973C84.3663 33.7027 83.9091 32.6487 83.9091 31.1351ZM83.9091 66.8108C83.9091 66.1622 84.1242 65.5135 84.5545 64.8649C84.9848 64.2162 85.4689 63.7838 86.0068 63.5676C89.2341 62.3784 92.542 61.4865 95.9307 60.8919C99.3193 60.2973 102.842 60 106.5 60C108.867 60 111.18 60.1351 113.439 60.4054C115.698 60.6757 117.903 61.0811 120.055 61.6216C120.7 61.8378 121.292 62.2432 121.83 62.8378C122.367 63.4324 122.636 64.1081 122.636 64.8649C122.636 66.0541 122.233 66.973 121.426 67.6216C120.619 68.2703 119.624 68.4324 118.441 68.1081C116.612 67.5676 114.703 67.1622 112.712 66.8919C110.722 66.6216 108.652 66.4865 106.5 66.4865C103.38 66.4865 100.368 66.7568 97.4636 67.2973C94.5591 67.8378 91.7083 68.7027 88.9114 69.8919C87.4053 70.4324 86.1951 70.4324 85.2807 69.8919C84.3663 69.3513 83.9091 68.3243 83.9091 66.8108ZM83.9091 48.973C83.9091 48.3243 84.1242 47.7027 84.5545 47.1081C84.9848 46.5135 85.4689 46.1081 86.0068 45.8919C89.2341 44.7027 92.542 43.7838 95.9307 43.1351C99.3193 42.4865 102.842 42.1622 106.5 42.1622C108.867 42.1622 111.18 42.2973 113.439 42.5676C115.698 42.8378 117.903 43.2432 120.055 43.7838C120.7 44 121.292 44.4054 121.83 45C122.367 45.5946 122.636 46.2703 122.636 47.027C122.636 48.2162 122.233 49.1351 121.426 49.7838C120.619 50.4324 119.624 50.5946 118.441 50.2703C116.612 49.7297 114.703 49.3243 112.712 49.0541C110.722 48.7838 108.652 48.6486 106.5 48.6486C103.38 48.6486 100.368 48.9459 97.4636 49.5405C94.5591 50.1351 91.7083 51.027 88.9114 52.2162C87.4053 52.7568 86.1951 52.7297 85.2807 52.1351C84.3663 51.5405 83.9091 50.4865 83.9091 48.973ZM33.5636 81.0811C39.3727 81.0811 44.9936 81.7568 50.4261 83.1081C55.8587 84.4595 61.2106 86.4865 66.4818 89.1892V19.9459C61.6409 16.7027 56.3966 14.1892 50.7489 12.4054C45.1011 10.6216 39.3727 9.72973 33.5636 9.72973C29.4758 9.72973 25.4686 10.2432 21.542 11.2703C17.6155 12.2973 13.6621 13.5676 9.68182 15.0811V85.4595C13.0167 83.9459 16.8087 82.8378 21.058 82.1351C25.3072 81.4324 29.4758 81.0811 33.5636 81.0811ZM76.1636 89.1892C81.5424 86.4865 86.8136 84.4595 91.9773 83.1081C97.1409 81.7568 102.627 81.0811 108.436 81.0811C112.524 81.0811 116.747 81.4054 121.103 82.054C125.46 82.7027 129.198 83.5676 132.318 84.6486V15.0811C128.661 13.2432 124.788 11.8919 120.7 11.027C116.612 10.1622 112.524 9.72973 108.436 9.72973C102.627 9.72973 97.0064 10.6216 91.5739 12.4054C86.1413 14.1892 81.0045 16.7027 76.1636 19.9459V89.1892ZM71.3227 102C70.4621 102 69.6822 101.919 68.983 101.757C68.2837 101.595 67.6651 101.297 67.1273 100.865C62.0712 97.7297 56.6924 95.2973 50.9909 93.5676C45.2894 91.8378 39.4803 90.973 33.5636 90.973C29.5833 90.973 25.7106 91.4595 21.9455 92.4324C18.1803 93.4054 14.4152 94.5946 10.65 96C8.17576 97.1892 5.7822 97.027 3.46932 95.5135C1.15644 94 0 91.8378 0 89.027V13.9459C0 12.3243 0.376515 10.8378 1.12955 9.48649C1.88258 8.13514 3.01212 7.08108 4.51818 6.32432C9.03636 4.16216 13.7428 2.56757 18.6375 1.54054C23.5322 0.513515 28.5076 0 33.5636 0C40.3409 0 46.9299 0.91892 53.3307 2.75676C59.7314 4.5946 65.7288 7.4054 71.3227 11.1892C76.8091 7.4054 82.6989 4.5946 88.992 2.75676C95.2852 0.91892 101.767 0 108.436 0C113.492 0 118.441 0.513515 123.282 1.54054C128.123 2.56757 132.802 4.16216 137.32 6.32432C138.827 7.08108 139.983 8.13514 140.79 9.48649C141.597 10.8378 142 12.3243 142 13.9459V89.027C142 92.0541 140.79 94.3513 138.369 95.9189C135.949 97.4865 133.555 97.5135 131.189 96C127.531 94.4865 123.82 93.2703 120.055 92.3513C116.289 91.4324 112.417 90.973 108.436 90.973C102.627 90.973 96.9258 91.8378 91.3318 93.5676C85.7379 95.2973 80.4667 97.7297 75.5182 100.865C74.9803 101.297 74.3617 101.595 73.6625 101.757C72.9633 101.919 72.1833 102 71.3227 102Z" fill="#25A7F0"/>
</svg>
