<svg width="24" height="24" viewBox="0 0 24 24" fill="none" xmlns="http://www.w3.org/2000/svg">
<path fill-rule="evenodd" clip-rule="evenodd" d="M11.6129 0C10.7578 0 10.0645 0.693237 10.0645 1.54839V10.0645H1.54839C0.693236 10.0645 0 10.7577 0 11.6129C0 12.468 0.693237 13.1613 1.54839 13.1613H10.0645V22.4516C10.0645 23.3068 10.7578 24 11.6129 24C12.4681 24 13.1613 23.3068 13.1613 22.4516V13.1613H22.4516C23.3068 13.1613 24 12.468 24 11.6129C24 10.7577 23.3068 10.0645 22.4516 10.0645H13.1613V1.54839C13.1613 0.693236 12.4681 0 11.6129 0Z" fill="#252525"/>
</svg>
